<?xml version="1.0" encoding="UTF-8"?>
<svg width="206px" height="206px" viewBox="0 0 206 206" version="1.1" xmlns="http://www.w3.org/2000/svg" xmlns:xlink="http://www.w3.org/1999/xlink">
    <!-- Generator: Sketch 51.2 (57519) - http://www.bohemiancoding.com/sketch -->
    <title>como-card__circle</title>
    <desc>Created with Sketch.</desc>
    <defs></defs>
    <g id="Escritorio" stroke="none" stroke-width="1" fill="none" fill-rule="evenodd">
        <g id="nosotros" transform="translate(-218.000000, -630.000000)" fill-rule="nonzero">
            <g id="Como" transform="translate(136.000000, 500.000000)">
                <g id="como-card" transform="translate(0.000000, 110.000000)">
                    <g id="como-card__circle" transform="translate(82.000000, 20.000000)">
                        <circle id="Oval-2" fill="#F8B400" cx="103" cy="103" r="103"></circle>
                        <g id="noun_surf_1178143" transform="translate(25.000000, 54.000000)" fill="#7F600D">
                            <g id="Group">
                                <path d="M149.175,74.34525 L149.175,65.8483437 C149.175,61.3235 148.49874,56.9533125 147.25638,52.8296563 L147.3849,52.8296563 L146.47302,50.4546875 C146.39346,50.23725 146.30778,50.0274687 146.22669,49.8115625 L146.18691,49.7089687 C146.18232,49.6951875 146.1762,49.6829375 146.17008,49.6722187 C143.2233,42.011375 138.2508,35.3550312 131.91048,30.3570313 C131.91048,30.3555 131.90895,30.3555 131.90895,30.3555 L131.28318,29.8624375 L131.28165,29.8624375 C123.70509,24.101875 114.26346,20.6749375 104.03541,20.6749375 L87.97347,20.6749375 L87.97347,15.9495 C101.39769,15.6355938 113.07465,14.7627813 122.50863,13.3923125 L129.91383,18.8895 C130.87161,19.6 131.97321,19.9598438 133.08858,19.9598438 C133.90713,19.9598438 134.73333,19.765375 135.51669,19.3703125 C137.36187,18.4393125 138.465,16.6492813 138.465,14.5805625 L138.465,9.93475 C140.72787,9.193625 142.64037,8.39125 144.17649,7.5306875 C145.1052,7.00853125 145.55349,5.91675 145.25973,4.89234375 C144.96597,3.8679375 143.99289,3.185 142.94178,3.23246875 C132.29451,3.75309375 124.07841,3.84496875 110.74599,3.84496875 C110.74446,3.84496875 110.73987,3.84496875 110.73834,3.84496875 L91.035,3.82965625 C87.45786,3.82965625 83.66652,3.84496875 79.7283,3.86028125 C75.48408,3.877125 71.07003,3.8924375 66.57642,3.8924375 C45.42876,3.8924375 21.75507,3.5249375 6.52239,0.80084375 C5.53095,0.62321875 4.54716,1.11015625 4.08357,1.99828125 C3.61998,2.8879375 3.78675,3.97665625 4.49667,4.685625 C9.2718,9.46465625 25.04916,12.7859375 43.67079,14.5621875 L43.67079,20.671875 L26.01459,20.671875 C15.46524,20.671875 6.885,29.259125 6.885,39.8155625 L6.885,74.265625 L4.59459,74.265625 C2.48319,74.265625 0.765,75.9836875 0.765,78.0968125 L0.765,81.1516563 C0.765,83.2647812 2.48319,84.984375 4.59459,84.984375 L6.885,84.984375 L18.5589,84.984375 C19.66662,91.9132813 25.66422,97.2328438 32.895,97.2328438 C40.12578,97.2328438 46.12338,91.9132812 47.2311,84.984375 L100.4139,84.984375 C101.52162,91.9148125 107.51769,97.234375 114.75,97.234375 C121.98231,97.234375 127.97838,91.9148125 129.0861,84.9859062 L132.345,84.9859062 L148.40541,84.9859062 L149.175,84.9859062 L149.175,84.9078125 C150.9192,84.5510313 152.235,83.0029375 152.235,81.1531875 L152.235,78.0983437 C152.235,76.2485938 150.9192,74.7020313 149.175,74.34525 Z M140.54886,48.2359063 L107.09847,48.2359063 C106.68384,48.2359063 106.33347,47.88525 106.33347,47.4702813 L106.33347,35.2202812 C106.33347,34.8053125 106.68384,34.4546562 107.09847,34.4546562 L129.67974,34.4546562 C134.2728,38.22 137.97999,42.9285938 140.54886,48.2359063 Z M133.875,14.5790313 C133.875,14.8975312 133.73577,15.122625 133.45119,15.2665625 C133.16661,15.4105 132.90804,15.3890625 132.64947,15.196125 L128.80152,12.3403438 C130.60539,11.99275 132.29757,11.62525 133.875,11.2347813 L133.875,14.5790313 Z M66.57795,8.4861875 C71.07615,8.4861875 75.49632,8.4678125 79.74666,8.45403125 C83.67723,8.43871875 87.46398,8.42340625 91.035,8.42340625 L110.73987,8.43871875 C110.74293,8.43871875 110.74446,8.43871875 110.74752,8.43871875 C116.03214,8.43871875 120.51963,8.42340625 124.67358,8.37440625 C112.48713,10.3604375 95.69844,11.4859062 76.5,11.4859062 C55.61244,11.4859062 37.85373,9.83675 25.50816,7.50465625 C38.36628,8.3330625 52.99308,8.4861875 66.57795,8.4861875 Z M48.26232,14.9664375 C57.46986,15.7029688 67.18842,16.0796563 76.5,16.0796563 C78.83937,16.0796563 81.13131,16.0628125 83.38347,16.0321875 L83.38347,20.6734063 L48.26232,20.6734063 L48.26232,14.9664375 Z M32.895,92.640625 C27.41148,92.640625 22.95,88.1770313 22.95,82.6890313 C22.95,77.2010313 27.41148,72.7359063 32.895,72.7359063 C38.37852,72.7359063 42.84,77.2010313 42.84,82.6890313 C42.84,88.1770313 38.37852,92.640625 32.895,92.640625 Z M114.75,92.640625 C109.26648,92.640625 104.805,88.1770313 104.805,82.6890313 C104.805,77.2010313 109.26648,72.7359063 114.75,72.7359063 C120.23352,72.7359063 124.695,77.2010313 124.695,82.6890313 C124.695,88.1770313 120.23352,92.640625 114.75,92.640625 Z M129.0861,80.3921563 C127.97838,73.4617188 121.98078,68.1421563 114.75,68.1421563 C107.51922,68.1421563 101.52162,73.4617188 100.4139,80.3921563 L47.2311,80.3921563 C46.12338,73.4617188 40.12578,68.1421563 32.895,68.1421563 C25.66422,68.1421563 19.66662,73.4617188 18.5589,80.3921563 L13.34007,80.3921563 L5.355,80.3921563 L5.355,78.8609063 L14.535,78.8609063 L14.535,74.2671563 L11.475,74.2671563 L11.475,52.8296563 L34.5321,52.8296563 L34.5321,48.2359063 L11.475,48.2359063 L11.475,39.8170938 C11.475,31.794875 17.99739,25.2671562 26.01459,25.2671562 L104.03541,25.2671562 C110.77965,25.2671562 117.13986,26.9331562 122.74272,29.8609062 L107.09847,29.8609062 C104.14557,29.8609062 101.74347,32.2649688 101.74347,35.2202813 L101.74347,47.4702813 C101.74347,50.4255938 104.14557,52.8296563 107.09847,52.8296563 L142.43229,52.8296563 C143.82,56.919625 144.585,61.2944063 144.585,65.8483438 L144.585,74.2671563 L133.875,74.2671563 L133.875,78.8609063 L147.645,78.8609063 L147.645,80.3921563 L140.76,80.3921563 L132.345,80.3921563 L129.0861,80.3921563 Z" id="Shape"></path>
                                <path d="M69.61653,47.4702812 L69.61653,35.2202812 C69.61653,32.2649687 67.21443,29.8609062 64.26153,29.8609062 L48.96,29.8609062 C46.0071,29.8609062 43.605,32.2649687 43.605,35.2202812 L43.605,47.4702812 C43.605,50.4255937 46.0071,52.8296562 48.96,52.8296562 L64.26153,52.8296562 C67.21443,52.8296562 69.61653,50.4255937 69.61653,47.4702812 Z M48.195,47.4702812 L48.195,35.2202812 C48.195,34.8053125 48.54537,34.4546562 48.96,34.4546562 L64.26153,34.4546562 C64.67616,34.4546562 65.02653,34.8053125 65.02653,35.2202812 L65.02653,47.4702812 C65.02653,47.88525 64.67616,48.2359062 64.26153,48.2359062 L48.96,48.2359062 C48.54537,48.2359062 48.195,47.88525 48.195,47.4702812 Z" id="Shape"></path>
                                <path d="M93.33153,29.8609062 L78.03,29.8609062 C75.0771,29.8609062 72.675,32.2649687 72.675,35.2202812 L72.675,47.4702812 C72.675,50.4255937 75.0771,52.8296562 78.03,52.8296562 L93.33153,52.8296562 C96.28443,52.8296562 98.68653,50.4255937 98.68653,47.4702812 L98.68653,35.2202812 C98.68653,32.2649687 96.28443,29.8609062 93.33153,29.8609062 Z M94.09653,47.4702812 C94.09653,47.88525 93.74616,48.2359062 93.33153,48.2359062 L78.03,48.2359062 C77.61537,48.2359062 77.265,47.88525 77.265,47.4702812 L77.265,35.2202812 C77.265,34.8053125 77.61537,34.4546562 78.03,34.4546562 L93.33153,34.4546562 C93.74616,34.4546562 94.09653,34.8053125 94.09653,35.2202812 L94.09653,47.4702812 Z" id="Shape"></path>
                                <path d="M114.75,76.5640312 C111.37482,76.5640312 108.63,79.3110937 108.63,82.6890312 C108.63,86.0654375 111.37482,88.8125 114.75,88.8125 C118.12518,88.8125 120.87,86.0654375 120.87,82.6890312 C120.87,79.3110937 118.12518,76.5640312 114.75,76.5640312 Z M114.75,84.21875 C113.90544,84.21875 113.22,83.53275 113.22,82.6890312 C113.22,81.8437812 113.90544,81.1577812 114.75,81.1577812 C115.59456,81.1577812 116.28,81.8437812 116.28,82.6890312 C116.28,83.53275 115.59456,84.21875 114.75,84.21875 Z" id="Shape"></path>
                                <path d="M32.895,76.5640312 C29.51982,76.5640312 26.775,79.3110937 26.775,82.6890312 C26.775,86.0654375 29.51982,88.8125 32.895,88.8125 C36.27018,88.8125 39.015,86.0654375 39.015,82.6890312 C39.015,79.3110937 36.27018,76.5640312 32.895,76.5640312 Z M32.895,84.21875 C32.05044,84.21875 31.365,83.53275 31.365,82.6890312 C31.365,81.8437812 32.05044,81.1577812 32.895,81.1577812 C33.73956,81.1577812 34.425,81.8437812 34.425,82.6890312 C34.425,83.53275 33.73956,84.21875 32.895,84.21875 Z" id="Shape"></path>
                                <rect id="Rectangle-path" x="49.725" y="74.2671562" width="47.43" height="4.59375"></rect>
                            </g>
                        </g>
                    </g>
                </g>
            </g>
        </g>
    </g>
</svg>