<?xml version="1.0" encoding="UTF-8"?>
<svg width="206px" height="206px" viewBox="0 0 206 206" version="1.1" xmlns="http://www.w3.org/2000/svg" xmlns:xlink="http://www.w3.org/1999/xlink">
    <!-- Generator: Sketch 51.2 (57519) - http://www.bohemiancoding.com/sketch -->
    <title>como-card__circle</title>
    <desc>Created with Sketch.</desc>
    <defs></defs>
    <g id="Escritorio" stroke="none" stroke-width="1" fill="none" fill-rule="evenodd">
        <g id="nosotros" transform="translate(-871.000000, -689.000000)" fill-rule="nonzero">
            <g id="Como" transform="translate(390.000000, 558.000000)">
                <g id="como-card" transform="translate(399.000000, 110.000000)">
                    <g id="como-card__circle" transform="translate(82.000000, 21.000000)">
                        <circle id="Oval-2" fill="#F8B400" cx="103" cy="103" r="103"></circle>
                        <g id="Group" transform="translate(41.000000, 41.000000)" fill="#755500">
                            <path d="M42.098,91.9491 C40.4209,90.7246 38.3315,89.2118 34.4286,89.2118 C30.5288,89.2118 28.4425,90.7246 26.7685,91.9491 C25.2836,93.0248 24.211,93.806 21.7992,93.806 C19.3967,93.806 18.321,93.0279 16.8423,91.9491 C15.1683,90.7246 13.0851,89.2118 9.1791,89.2118 C7.9112,89.2118 6.8851,90.2379 6.8851,91.5089 C6.8851,92.7737 7.9143,93.8029 9.1791,93.8029 C11.5878,93.8029 12.6573,94.581 14.136,95.6598 C15.8162,96.8812 17.8932,98.3971 21.7961,98.3971 C25.7021,98.3971 27.7853,96.8812 29.4624,95.6598 C30.9473,94.581 32.0168,93.8029 34.4255,93.8029 C36.8404,93.8029 37.9068,94.581 39.3948,95.6598 C41.0688,96.8812 43.1613,98.3971 47.0611,98.3971 C50.9671,98.3971 53.0565,96.8812 54.7305,95.6598 C56.2185,94.581 57.2911,93.8029 59.6998,93.8029 C60.9708,93.8029 61.9969,92.7737 61.9969,91.5089 C61.9969,90.2379 60.9708,89.2118 59.6998,89.2118 C55.7938,89.2118 53.7106,90.7246 52.0304,91.9491 C50.5455,93.0248 49.476,93.806 47.0611,93.806 C44.6524,93.8029 43.5798,93.0217 42.098,91.9491 Z" id="Shape"></path>
                            <path d="M122.9243,118.947 C122.481,118.6773 116.994,115.3169 106.6183,112.0433 C129.7257,65.3108 118.11,16.1355 115.5029,6.6278 L115.3324,6.0016 C114.6628,3.5123 114.1327,1.5438 110.9366,0.6479 C107.1081,-0.4309 105.2791,1.5345 103.6702,3.2674 L103.0564,3.9153 C66.774,41.5617 66.8515,94.0571 67.3599,105.7379 C65.4348,105.6728 63.488,105.617 61.4637,105.617 C28.0798,105.617 2.3219,118.761 1.2369,119.319 C0.1147,119.9018 -0.3255,121.2906 0.2573,122.4128 C0.6634,123.2033 1.4663,123.6559 2.3002,123.6559 C2.6505,123.6559 3.0132,123.5784 3.3511,123.3986 C3.6053,123.2653 29.1896,110.2112 61.4637,110.2112 C99.7022,110.2112 120.2893,122.7197 120.4939,122.8437 C121.5696,123.5102 122.9863,123.1816 123.6559,122.109 C124.3193,121.0302 123.9938,119.6197 122.9243,118.947 Z M106.3579,7.1052 L107.0213,6.4015 C108.4969,4.8143 108.5899,4.7523 109.6873,5.0654 C110.1554,5.1956 110.2701,5.2948 110.2701,5.2948 C110.4313,5.4746 110.6855,6.4325 110.8932,7.1951 L111.0637,7.8461 C113.6088,17.1182 125.0013,65.2798 102.1419,110.7351 C98.3165,109.6842 93.9486,108.7046 89.0878,107.8769 L106.2339,25.6277 C106.4912,24.3846 105.6945,23.1694 104.4545,22.9121 C103.1959,22.6517 101.9993,23.4484 101.742,24.6853 L84.5432,107.1856 C80.6434,106.6431 76.4491,106.2215 71.9665,105.958 C71.4581,95.8799 70.7668,44.0417 106.3579,7.1052 Z" id="Shape"></path>
                            <path d="M27.5528,41.075 C33.9357,41.075 39.1251,35.8856 39.1251,29.5027 C39.1251,23.1229 33.9357,17.9335 27.5528,17.9335 C21.1761,17.9335 15.9836,23.1229 15.9836,29.5027 C15.9836,35.8887 21.1792,41.075 27.5528,41.075 Z M27.5528,22.5308 C31.3999,22.5308 34.5278,25.6587 34.5278,29.5058 C34.5278,33.356 31.3999,36.4808 27.5528,36.4808 C23.7057,36.4808 20.5778,33.3529 20.5778,29.5058 C20.5778,25.6587 23.7057,22.5308 27.5528,22.5308 Z" id="Shape"></path>
                            <path d="M27.5528,15.7294 C28.8238,15.7294 29.8499,14.6971 29.8499,13.4323 L29.8499,8.8381 C29.8499,7.5733 28.8238,6.5441 27.5528,6.5441 C26.2818,6.5441 25.2588,7.5764 25.2588,8.8381 L25.2588,13.4292 C25.2588,14.6971 26.2818,15.7294 27.5528,15.7294 Z" id="Shape"></path>
                            <path d="M29.8499,50.1766 L29.8499,45.5824 C29.8499,44.3145 28.8238,43.2853 27.5528,43.2853 C26.2818,43.2853 25.2588,44.3145 25.2588,45.5824 L25.2588,50.1766 C25.2588,51.4445 26.2818,52.4706 27.5528,52.4706 C28.8238,52.4706 29.8499,51.4414 29.8499,50.1766 Z" id="Shape"></path>
                            <path d="M6.8882,31.8029 L11.4824,31.8029 C12.7503,31.8029 13.7733,30.7706 13.7733,29.5027 C13.7733,28.2348 12.7472,27.2087 11.4824,27.2087 L6.8882,27.2087 C5.6203,27.2087 4.588,28.2379 4.588,29.5027 C4.5849,30.7737 5.6203,31.8029 6.8882,31.8029 Z" id="Shape"></path>
                            <path d="M41.3323,29.5058 C41.3323,30.7737 42.3615,31.806 43.6263,31.806 L48.2205,31.806 C49.4915,31.806 50.5176,30.7737 50.5176,29.5058 C50.5176,28.2379 49.4915,27.2118 48.2205,27.2118 L43.6263,27.2118 C42.3584,27.2087 41.3323,28.2379 41.3323,29.5058 Z" id="Shape"></path>
                            <path d="M14.198,46.1094 L17.6979,42.6126 C18.5907,41.7167 18.5907,40.2628 17.6979,39.3638 C16.7958,38.4679 15.345,38.4679 14.4522,39.3638 L10.9523,42.8637 C10.0533,43.7596 10.0533,45.2135 10.9523,46.1094 C11.3987,46.5589 11.9846,46.7852 12.5705,46.7852 C13.1657,46.7852 13.7485,46.5589 14.198,46.1094 Z" id="Shape"></path>
                            <path d="M39.0352,20.3205 C39.6242,20.3205 40.2101,20.0973 40.6596,19.6478 L44.1595,16.151 C45.0523,15.252 45.0523,13.8012 44.1595,12.9022 C43.2605,12.0063 41.8066,12.0063 40.9107,12.9022 L37.4139,16.399 C36.518,17.298 36.518,18.7519 37.4139,19.6478 C37.8572,20.0942 38.4493,20.3205 39.0352,20.3205 Z" id="Shape"></path>
                            <path d="M14.4522,19.6478 C14.8986,20.0973 15.4845,20.3205 16.0704,20.3205 C16.6563,20.3205 17.2453,20.0973 17.6948,19.6478 C18.5876,18.7519 18.5876,17.298 17.6948,16.399 L14.198,12.9022 C13.299,12.0063 11.8451,12.0063 10.9523,12.9022 C10.0533,13.8012 10.0533,15.252 10.9523,16.151 L14.4522,19.6478 Z" id="Shape"></path>
                            <path d="M42.5351,46.7852 C43.121,46.7852 43.7069,46.5589 44.1595,46.1094 C45.0523,45.2135 45.0523,43.7596 44.1595,42.8637 L40.6596,39.3638 C39.7606,38.4679 38.3067,38.4679 37.4108,39.3638 C36.5149,40.2628 36.5149,41.7167 37.4108,42.6126 L40.9076,46.1094 C41.3571,46.5589 41.9492,46.7852 42.5351,46.7852 Z" id="Shape"></path>
                        </g>
                    </g>
                </g>
            </g>
        </g>
    </g>
</svg>