<?xml version="1.0" encoding="UTF-8"?>
<svg width="206px" height="206px" viewBox="0 0 206 206" version="1.1" xmlns="http://www.w3.org/2000/svg" xmlns:xlink="http://www.w3.org/1999/xlink">
    <!-- Generator: Sketch 51.2 (57519) - http://www.bohemiancoding.com/sketch -->
    <title>como-card__circle</title>
    <desc>Created with Sketch.</desc>
    <defs></defs>
    <g id="Escritorio" stroke="none" stroke-width="1" fill="none" fill-rule="evenodd">
        <g id="nosotros" transform="translate(-1017.000000, -631.000000)" fill-rule="nonzero">
            <g id="Como" transform="translate(136.000000, 500.000000)">
                <g id="como-card-copy" transform="translate(799.000000, 110.000000)">
                    <g id="como-card__circle" transform="translate(82.000000, 21.000000)">
                        <g id="Group-2">
                            <circle id="Oval-2" fill="#F8B400" cx="103" cy="103" r="103"></circle>
                            <g id="Group" transform="translate(22.000000, 38.000000)" fill="#755500">
                                <path d="M141.696665,117.357671 C140.514323,117.357671 139.478185,116.50056 139.303376,115.301871 C139.103141,113.982997 140.021681,112.759006 141.343869,112.566077 C151.184004,111.117529 155.859339,101.050439 155.258633,92.3275244 C154.546685,81.9188548 146.629445,70.7163304 126.535993,70.504425 C114.102334,70.2292641 104.322588,79.1545955 104.227238,79.243153 C103.264202,80.2742154 102.046898,82.175039 102.046898,83.0448002 C102.13907,82.870848 103.054431,83.0859162 103.588392,83.0859162 C104.986861,82.6368031 122.814159,78.2785088 130.184725,85.5592008 C133.162827,88.4974123 133.982838,92.7102193 132.625688,98.0742739 C128.29997,115.23229 100.050902,115.719357 98.8558469,115.725682 L37.7014454,115.725682 C36.3633651,115.725682 35.2763735,114.647178 35.2763735,113.315653 C35.2763735,111.984128 36.3633651,110.905624 37.7014454,110.905624 L98.8304202,110.905624 C99.0560822,110.899298 124.508213,110.450185 127.931283,96.9008869 C128.849823,93.2447271 128.474779,90.6607456 126.777546,88.9844786 C122.188026,84.4459064 108.924822,86.5965887 104.201811,87.8269055 C100.734245,87.8427193 97.2031111,86.3910088 97.2031111,83.0416374 C97.2031111,79.7934747 100.219354,76.4441033 100.829595,75.8052242 C101.408052,75.2738791 112.109516,65.6748782 126.246764,65.6748782 C126.361184,65.6748782 126.475604,65.6748782 126.586846,65.6843665 C150.00484,65.9278996 159.276052,80.0117057 160.099242,91.992271 C160.973285,104.801481 153.214962,115.687729 142.052639,117.332368 C141.931862,117.351345 141.811085,117.357671 141.696665,117.357671 Z" id="Shape"></path>
                                <ellipse id="Oval" cx="97.8832754" cy="9.94057992" rx="9.48733894" ry="9.44086257"></ellipse>
                                <path d="M157.102069,44.9366082 C157.102069,34.8537037 126.269012,31.1311257 96.6913987,30.9698246 C97.1713277,29.2271394 97.3461363,27.3484552 96.6691503,25.6974903 C95.057733,21.7724951 90.0327806,19.947578 85.9676863,19.8874854 L65.0732923,19.8874854 C63.6811802,19.8874854 62.4924818,20.4188304 61.4754136,21.5321248 L52.6650607,31.6371686 C28.4365901,32.9370663 0,36.3054142 0,44.9366082 C0,53.3558967 27.7882092,56.705268 50.2463455,58.0367934 L43.4860205,65.8203655 L22.1879776,65.8203655 C20.4557834,65.8203655 18.9842129,66.3580361 17.7955145,67.4586793 C16.6036377,68.5308577 16.0029318,69.9414522 16.0029318,71.6651608 C16.0029318,73.2971491 16.6036377,74.6729532 17.8082278,75.8052242 C19.0001046,76.9438207 20.4303567,77.5036306 22.0894491,77.5036306 L47.1061475,77.5036306 C48.1105023,77.5036306 49.0322204,77.4182359 49.8617666,77.2379581 C51.981718,76.871077 53.4596452,76.2321979 54.2891914,75.3149951 L66.5830028,61.6929532 L80.9554472,75.4921101 L75.1549804,101.278158 C74.9674585,101.837968 74.8752866,102.280755 74.8752866,102.66345 C74.8752866,104.30809 75.4728142,105.731335 76.6678693,106.93635 C77.8724594,108.128713 79.2963548,108.726477 80.9554472,108.726477 C84.0861102,108.726477 86.0248964,107.113465 86.7622708,103.893767 L93.8118245,72.5602242 C94.635014,69.2519688 94.2790401,66.8103119 92.7280112,65.2447417 L86.3173035,58.8654386 C86.3395518,58.8654386 86.3586218,58.8654386 86.3808702,58.8654386 C89.1015275,58.900229 91.8666816,58.9255312 94.6795107,58.9255312 C95.6012288,58.9255312 96.4848067,58.9065546 97.3906331,58.900229 L102.199458,63.1288499 C103.156138,63.8151706 104.220881,64.1187963 105.342835,64.0555409 C106.72859,63.9764717 107.866435,63.4419639 108.727765,62.4172271 C109.614521,61.4083041 110.008635,60.2538938 109.945068,58.9698099 C109.938711,58.8243226 109.881501,58.710463 109.86561,58.5776267 C138.642282,57.2492641 157.102069,52.1066033 157.102069,44.9366082 Z M75.2662222,29.2366277 L73.74062,30.9951267 C70.8769374,31.0204288 68.0164332,31.0678704 65.2322092,31.1342885 L66.9993651,29.0911404 L75.2662222,29.2366277 Z M4.94231559,45.1643275 C5.93395705,43.2413645 17.8559029,38.8735819 48.0818973,36.8842008 L45.9969076,39.2752534 C44.8908459,40.1924561 44.3378151,41.3373782 44.3378151,42.7100195 C44.3378151,43.9941033 44.7923175,45.0915838 45.7172138,46.0119493 C46.6389318,46.929152 47.7449935,47.3909162 49.0322204,47.3909162 C50.4243324,47.3909162 51.6130308,46.8437573 52.630099,45.743114 L60.811141,36.2579727 L64.8794136,36.0998343 C66.3446275,36.0587183 67.8765864,36.0587183 69.3672269,36.0334162 L54.2891914,53.3780361 C24.4128142,51.8946979 6.50287955,47.8368665 4.94231559,45.1643275 Z M94.6826891,53.9568226 C91.8921083,53.9568226 89.1460243,53.9283577 86.3840486,53.8935673 C84.7440261,53.9157066 83.049972,53.9220322 81.3654528,53.9346832 L80.1545061,52.7233431 L93.8118245,36.9284795 C93.8118245,36.9284795 94.0915182,36.5362963 94.4792754,35.9100682 C94.5460205,35.9100682 94.6127656,35.9100682 94.6795107,35.9100682 C140.298196,35.9100682 151.7275,43.1622953 152.134327,44.7689815 C151.164934,47.2264522 135.730924,53.9568226 94.6826891,53.9568226 Z" id="Shape"></path>
                            </g>
                        </g>
                    </g>
                </g>
            </g>
        </g>
    </g>
</svg>