<?xml version="1.0" encoding="UTF-8"?>
<svg width="161px" height="79px" viewBox="0 0 161 79" version="1.1" xmlns="http://www.w3.org/2000/svg" xmlns:xlink="http://www.w3.org/1999/xlink">
    <!-- Generator: Sketch 51.2 (57519) - http://www.bohemiancoding.com/sketch -->
    <title>logo copy</title>
    <desc>Created with Sketch.</desc>
    <defs>
        <polygon id="path-1" points="0 0.155447761 9.92631841 0.155447761 9.92631841 11.9402736 0 11.9402736"></polygon>
        <polygon id="path-3" points="0 78 160 78 160 0 0 0"></polygon>
    </defs>
    <g id="Escritorio" stroke="none" stroke-width="1" fill="none" fill-rule="evenodd">
        <g id="Home-V6" transform="translate(-134.000000, -3817.000000)">
            <g id="footer" transform="translate(0.000000, 3208.000000)">
                <g id="logo-copy" transform="translate(135.000000, 610.000000)">
                    <path d="M112.351577,14.7053242 C112.351577,14.7053242 112.173104,10.2422102 105.346942,5.48117104 C98.9631158,1.02908203 92.1910671,0 85.4579896,0 C77.7230798,0 68.0512777,1.40944398 61.7836203,7.54860612 C57.0673632,12.2465022 53.9888885,17.1363331 53.0957783,27.5940316 C52.4752182,34.8604984 54.8554387,46.0373265 60.666612,53.1516986 C66.4998773,60.2928814 70.9525204,62 70.9525204,62 L132,62 C132,62 128.680003,59.1653263 127.190659,57.3800306 C125.414616,55.2509558 123.846088,51.9625037 123.846088,51.9625037 C123.846088,51.9625037 100.692741,47.012787 90.9499468,41.5631875 C85.2293752,38.3631859 79.1593042,33.983511 79.1593042,23.9607983 C79.1593042,8.30030957 92.2531231,8.04974175 96.9073241,8.23766762 C108.068719,8.68818856 112.351577,14.7053242 112.351577,14.7053242" id="Fill-1" fill="#FFFFFF"></path>
                    <path d="M112.351577,14.7053242 C112.351577,14.7053242 112.173104,10.2422102 105.346942,5.48117104 C98.9631158,1.02908203 92.1910671,0 85.4579896,0 C77.7230798,0 68.0512777,1.40944398 61.7836203,7.54860612 C57.0673632,12.2465022 53.9888885,17.1363331 53.0957783,27.5940316 C52.4752182,34.8604984 54.8554387,46.0373265 60.666612,53.1516986 C66.4998773,60.2928814 70.9525204,62 70.9525204,62 L132,62 C132,62 128.680003,59.1653263 127.190659,57.3800306 C125.414616,55.2509558 123.846088,51.9625037 123.846088,51.9625037 C123.846088,51.9625037 100.692741,47.012787 90.9499468,41.5631875 C85.2293752,38.3631859 79.1593042,33.983511 79.1593042,23.9607983 C79.1593042,8.30030957 92.2531231,8.04974175 96.9073241,8.23766762 C108.068719,8.68818856 112.351577,14.7053242 112.351577,14.7053242 Z" id="Stroke-3" stroke="#FFFFFF" stroke-width="0.25"></path>
                    <path d="M52.4555454,11 C52.4555454,11 44.5330243,21.1320555 48.2759477,39.1172239 C51.2453335,53.3861145 62,60.9827539 62,60.9827539 L36.1037113,61 C36.1037113,61 30.2335599,53.9939146 28.3136897,48.048215 C25.5688792,39.5483752 26.0290093,32.3111927 26.0290093,32.3111927 C26.0290093,32.3111927 33.4602093,25.474365 36.6728852,22.7642711 C41.8882746,18.3648033 52.4555454,11 52.4555454,11" id="Fill-5" fill="#FFFFFF"></path>
                    <path d="M52.4555454,11 C52.4555454,11 44.5330243,21.1320555 48.2759477,39.1172239 C51.2453335,53.3861145 62,60.9827539 62,60.9827539 L36.1037113,61 C36.1037113,61 30.2335599,53.9939146 28.3136897,48.048215 C25.5688792,39.5483752 26.0290093,32.3111927 26.0290093,32.3111927 C26.0290093,32.3111927 33.4602093,25.474365 36.6728852,22.7642711 C41.8882746,18.3648033 52.4555454,11 52.4555454,11 Z" id="Stroke-7" stroke="#FFFFFF" stroke-width="0.25" stroke-linecap="square"></path>
                    <path d="M30,61 C30,61 25.8659776,55.349179 23.9058577,49.0337019 C21.5961778,41.5925415 21.8338493,35 21.8338493,35 L0,61 L30,61 Z" id="Fill-9" fill="#FFFFFF"></path>
                    <path d="M30,61 C30,61 25.8659776,55.349179 23.9058577,49.0337019 C21.5961778,41.5925415 21.8338493,35 21.8338493,35 L0,61 L30,61 Z" id="Stroke-11" stroke="#FFFFFF" stroke-width="0.25"></path>
                    <path d="M136.087126,61.9979795 C136.087126,61.9979795 131.661148,58.0042547 130.070754,55.8261807 C128.371372,53.4988441 128,52.7636431 128,52.7636431 L141.458938,55.6741398 L141.458458,43.814699 L137.084813,43.8136887 L137.084813,40.0015542 L141.458458,40.0023119 L141.458458,36 L145.074474,36 L145.074474,40.0018068 L149.455561,40.0015542 L149.455561,43.8136887 L145.074474,43.814699 L145.074474,56.4472248 L155.344461,58.6437356 L158,62 L136.087126,61.9979795 Z" id="Fill-13" fill="#FFFFFF"></path>
                    <path d="M136.087126,61.9979795 C136.087126,61.9979795 131.661148,58.0042547 130.070754,55.8261807 C128.371372,53.4988441 128,52.7636431 128,52.7636431 L141.458938,55.6741398 L141.458458,43.814699 L137.084813,43.8136887 L137.084813,40.0015542 L141.458458,40.0023119 L141.458458,36 L145.074474,36 L145.074474,40.0018068 L149.455561,40.0015542 L149.455561,43.8136887 L145.074474,43.814699 L145.074474,56.4472248 L155.344461,58.6437356 L158,62 L136.087126,61.9979795 Z" id="Stroke-15" stroke="#FFFFFF" stroke-width="0.25" stroke-linecap="square"></path>
                    <path d="M149,78 L146.815171,78 L142.446219,71.570777 L142.73086,71.3559122 L146.445984,71.3559122 L146.445984,66.9423142 L141.092297,66.9423142 L141.092297,78 L139,78 L139,66 L146.795444,66 C147.308361,66 147.727102,66.0828547 148.051667,66.2485642 C148.376233,66.4140203 148.538281,66.6278716 148.538281,66.8896115 L148.538281,71.3771959 C148.538281,71.9703547 147.77783,72.2668074 146.256458,72.2668074 C146.106623,72.2668074 145.886566,72.2630068 145.596289,72.2554054 C145.306012,72.2478041 145.096054,72.24375 144.965712,72.24375 C146.315406,74.1575169 147.660169,76.076098 149,78" id="Fill-17" fill="#FFFFFF"></path>
                    <polygon id="Fill-19" fill="#FFFFFF" points="160 66.9425477 154.211424 66.9425477 154.211424 71.4974346 159.544758 71.4974346 159.544758 72.455438 154.211424 72.455438 154.211424 78 152 78 152 66 160 66"></polygon>
                    <g id="Group-23" transform="translate(0.000000, 66.000000)">
                        <mask id="mask-2" fill="white">
                            <use xlink:href="#path-1"></use>
                        </mask>
                        <g id="Clip-22"></g>
                        <path d="M9.92631841,11.0666418 C9.92631841,11.323607 9.75293532,11.5335572 9.4059204,11.6962438 C9.05915423,11.8589303 8.6200995,11.9402736 8.08900498,11.9402736 L1.83726368,11.9402736 C1.29671642,11.9402736 0.855422886,11.8589303 0.513134328,11.6962438 C0.171094527,11.5335572 -4.97512438e-05,11.323607 -4.97512438e-05,11.0666418 L-4.97512438e-05,1.0290796 C-4.97512438e-05,0.771865672 0.171094527,0.561915423 0.513134328,0.399477612 C0.855422886,0.236791045 1.29671642,0.155447761 1.83726368,0.155447761 L8.08900498,0.155447761 C8.6200995,0.155447761 9.05915423,0.236791045 9.4059204,0.399477612 C9.75293532,0.561915423 9.92631841,0.771865672 9.92631841,1.0290796 L9.92631841,3.73380597 L7.72034826,3.73380597 L7.72034826,1.0808209 L2.20567164,1.0808209 L2.20567164,11.0149005 L7.72034826,11.0149005 L7.72034826,8.1149005 L9.92631841,8.1149005 L9.92631841,11.0666418 Z" id="Fill-21" fill="#FFFFFF" mask="url(#mask-2)"></path>
                    </g>
                    <path d="M24,77.1104169 C24,77.3720739 23.8325995,77.5858575 23.4973148,77.7515145 C23.1625139,77.9171715 22.7343364,78 22.2130243,78 L15.7867338,78 C15.2610673,78 14.8316803,77.9171715 14.4990566,77.7515145 C14.1661909,77.5858575 14,77.3720739 14,77.1104169 L14,66 L16.1449998,66 L16.1449998,77.0577309 L21.8547583,77.0577309 L21.8547583,66 L24,66 L24,77.1104169 Z" id="Fill-24" fill="#FFFFFF"></path>
                    <path d="M38,78 L35.8153461,78 L31.4462744,71.5707863 L31.7308291,71.3562427 L35.4460856,71.3562427 L35.4460856,66.9425224 L30.0923977,66.9425224 L30.0923977,78 L28,78 L28,66 L35.7957624,66 C36.30848,66 36.7270539,66.0828285 37.0517201,66.2484855 C37.3761503,66.4141425 37.5384833,66.6279261 37.5384833,66.8898364 L37.5384833,71.3772665 C37.5384833,71.9704908 36.777783,72.2671029 35.2568543,72.2671029 C35.1067906,72.2671029 34.88665,72.2633034 34.5964324,72.2554512 C34.3062149,72.2478522 34.0959841,72.2440528 33.9657402,72.2440528 C35.3156057,74.1577203 36.6602803,76.0762005 38,78" id="Fill-26" fill="#FFFFFF"></path>
                    <polygon id="Fill-28" fill="#FFFFFF" points="65 78 63.5108455 78 57.0317939 69.1745858 57.0317939 78 55 78 55 66 56.6130681 66 62.9682061 74.6721689 62.9682061 66 65 66"></polygon>
                    <mask id="mask-4" fill="white">
                        <use xlink:href="#path-3"></use>
                    </mask>
                    <g id="Clip-31"></g>
                    <polygon id="Fill-30" fill="#FFFFFF" mask="url(#mask-4)" points="69 78 71 78 71 66 69 66"></polygon>
                    <polygon id="Fill-32" fill="#FFFFFF" mask="url(#mask-4)" points="96 78 88 78 88 66 95.9041916 66 95.9041916 66.9425224 90.1671759 66.9425224 90.1671759 71.4190607 95.3941097 71.4190607 95.3941097 72.3770343 90.1671759 72.3770343 90.1671759 77.0577309 96 77.0577309"></polygon>
                    <polygon id="Fill-33" fill="#FFFFFF" mask="url(#mask-4)" points="100 73 107 73 107 72 100 72"></polygon>
                    <path d="M119,77.1101539 C119,77.3718883 118.826047,77.5857351 118.478142,77.7511877 C118.13049,77.917147 117.677097,78 117.118217,78 L110.881783,78 C110.333046,78 109.882189,77.917147 109.529212,77.7511877 C109.176742,77.5857351 109,77.3718883 109,77.1101539 L109,74.1046431 L111.259357,74.1046431 L111.259357,77.0574523 L116.740897,77.0574523 L116.740897,74.1910433 L109.730551,70.1978843 C109.243432,69.9224679 109,69.618927 109,69.287515 L109,66.8898461 C109,66.6281117 109.176742,66.4142649 109.529212,66.2488123 C109.882189,66.0831064 110.333046,66 110.881783,66 L117.118217,66 C117.677097,66 118.13049,66.0831064 118.478142,66.2488123 C118.826047,66.4142649 119,66.6281117 119,66.8898461 L119,69.6440109 L116.740897,69.6440109 L116.740897,66.9425477 L111.259357,66.9425477 L111.259357,69.4793184 L118.302414,73.4724774 C118.767471,73.7375055 119,74.035979 119,74.3676443 L119,77.1101539 Z" id="Fill-34" fill="#FFFFFF" mask="url(#mask-4)"></path>
                    <path d="M134,77.1101539 C134,77.3718883 133.832655,77.5857351 133.497484,77.7511877 C133.162312,77.917147 132.734439,78 132.213142,78 L125.786617,78 C125.260745,78 124.831668,77.917147 124.498904,77.7511877 C124.166141,77.5857351 124,77.3718883 124,77.1101539 L124,66 L126.144904,66 L126.144904,77.0574523 L131.854855,77.0574523 L131.854855,66 L134,66 L134,77.1101539 Z" id="Fill-35" fill="#FFFFFF" mask="url(#mask-4)"></path>
                    <path d="M48.6575992,74.4125561 L46.4766658,67.915493 L44.278263,74.4125561 L48.6575992,74.4125561 Z M52,78 L49.8195658,78 L48.9438483,75.3526179 L43.9915148,75.3526179 L43.1152982,78 L41,78 L41,77.9694309 L45.4260045,66 L47.6064387,66 L52,78 Z" id="Fill-36" fill="#FFFFFF" mask="url(#mask-4)"></path>
                    <path d="M78.2443247,72.2825541 L83.7556753,72.2825541 L83.7556753,66.9422691 L78.2443247,66.9422691 L78.2443247,72.2825541 Z M86,72.3511979 C86,72.6105752 85.8243616,72.8238522 85.4740971,72.9905224 C85.1235796,73.1571926 84.6756257,73.2410343 84.1304887,73.2410343 L78.2440716,73.2410343 L78.2440716,78 L76,78 L76,66 L84.1304887,66 C84.6756257,66 85.1235796,66.0828285 85.4740971,66.2484855 C85.8243616,66.4138892 86,66.6276728 86,66.8895831 L86,72.3511979 Z" id="Fill-37" fill="#FFFFFF" mask="url(#mask-4)"></path>
                </g>
            </g>
        </g>
    </g>
</svg>