<?xml version="1.0" encoding="UTF-8"?>
<svg width="52px" height="52px" viewBox="0 0 52 52" version="1.1" xmlns="http://www.w3.org/2000/svg" xmlns:xlink="http://www.w3.org/1999/xlink">
    <!-- Generator: Sketch 51.2 (57519) - http://www.bohemiancoding.com/sketch -->
    <title>hero__downelement</title>
    <desc>Created with Sketch.</desc>
    <defs></defs>
    <g id="Escritorio" stroke="none" stroke-width="1" fill="none" fill-rule="evenodd" opacity="0.704073661">
        <g id="Home-V6" transform="translate(-693.000000, -656.000000)" fill="#FFFFFF" fill-rule="nonzero">
            <g id="hero" transform="translate(-8.000000, 0.000000)">
                <g id="hero__downelement" transform="translate(701.000000, 656.000000)">
                    <path d="M26,52 C11.6405965,52 0,40.3594035 0,26 C0,11.6405965 11.6405965,0 26,0 C40.3594035,0 52,11.6405965 52,26 C52,40.3594035 40.3594035,52 26,52 Z M26,49.6716418 C39.0734868,49.6716418 49.6716418,39.0734868 49.6716418,26 C49.6716418,12.9265132 39.0734868,2.32835821 26,2.32835821 C12.9265132,2.32835821 2.32835821,12.9265132 2.32835821,26 C2.32835821,39.0734868 12.9265132,49.6716418 26,49.6716418 Z" id="Oval"></path>
                    <path d="M39.1372694,21.737773 L39.1372694,21.737773 C39.5025865,22.0012639 39.5851329,22.5110133 39.3216421,22.8763304 C39.2798245,22.9343084 39.2305658,22.9865369 39.1751323,23.0316732 L27.1314059,32.8381793 C26.763706,33.137576 26.236294,33.137576 25.8685941,32.8381793 L13.8248677,23.0316732 C13.4755834,22.7472713 13.4229859,22.2335672 13.7073877,21.8842829 C13.7525241,21.8288494 13.8047525,21.7795906 13.8627306,21.737773 L13.8627306,21.737773 C14.3716942,21.3706748 15.0637023,21.3909247 15.5503289,21.7871565 L25.8685941,30.1887199 C26.236294,30.4881166 26.763706,30.4881166 27.1314059,30.1887199 L37.4496711,21.7871565 C37.9362977,21.3909247 38.6283058,21.3706748 39.1372694,21.737773 Z" id="Path-3"></path>
                </g>
            </g>
        </g>
    </g>
</svg>